<svg xmlns="http://www.w3.org/2000/svg" width="20.26" height="4.297" viewBox="0 0 20.26 4.297">
  <path id="Path_3662" data-name="Path 3662" d="M6.252-7.745A2.155,2.155,0,0,0,4.071-9.894,2.148,2.148,0,0,0,1.923-7.745,2.148,2.148,0,0,0,4.071-5.6,2.155,2.155,0,0,0,6.252-7.745Zm7.949,0a2.141,2.141,0,0,0-2.148-2.148A2.139,2.139,0,0,0,9.915-7.745,2.139,2.139,0,0,0,12.053-5.6,2.141,2.141,0,0,0,14.2-7.745Zm7.981,0a2.141,2.141,0,0,0-2.148-2.148,2.146,2.146,0,0,0-2.17,2.148A2.146,2.146,0,0,0,20.034-5.6,2.141,2.141,0,0,0,22.183-7.745Z" transform="translate(-1.923 9.894)" fill="#212121"/>
</svg>
