<svg xmlns="http://www.w3.org/2000/svg" width="23.906" height="23.906" viewBox="0 0 23.906 23.906">
  <path id="Path_3638" data-name="Path 3638" d="M0,3.492A12.042,12.042,0,0,0,11.953-8.461,12.044,12.044,0,0,0-.012-20.414,12.032,12.032,0,0,0-11.953-8.461,12.049,12.049,0,0,0,0,3.492ZM0,1.5A9.913,9.913,0,0,1-9.949-8.461,9.9,9.9,0,0,1-.012-18.422,9.94,9.94,0,0,1,9.961-8.461,9.915,9.915,0,0,1,0,1.5ZM-.105-12.633a1.513,1.513,0,0,0,1.523-1.523A1.516,1.516,0,0,0-.105-15.691a1.523,1.523,0,0,0-1.523,1.535A1.52,1.52,0,0,0-.105-12.633ZM-2.051-2.016h4.77a.817.817,0,0,0,.855-.82.831.831,0,0,0-.855-.82H1.266V-9.621c0-.633-.316-1.055-.914-1.055h-2.2a.831.831,0,0,0-.855.82.817.817,0,0,0,.855.82H-.6v5.379H-2.051a.831.831,0,0,0-.855.82A.817.817,0,0,0-2.051-2.016Z" transform="translate(11.953 20.414)" fill="#212121"/>
</svg>
