<svg xmlns="http://www.w3.org/2000/svg" width="23.906" height="23.906" viewBox="0 0 23.906 23.906">
  <path id="Path_3639" data-name="Path 3639" d="M0,3.492A12.042,12.042,0,0,0,11.953-8.461,12.044,12.044,0,0,0-.012-20.414,12.032,12.032,0,0,0-11.953-8.461,12.049,12.049,0,0,0,0,3.492Zm-.117-16.23A1.578,1.578,0,0,1-1.7-14.332,1.578,1.578,0,0,1-.117-15.926a1.568,1.568,0,0,1,1.57,1.594A1.568,1.568,0,0,1-.117-12.738Zm-2,10.945a.856.856,0,0,1-.891-.867.868.868,0,0,1,.891-.855H-.633V-9.023H-1.922A.853.853,0,0,1-2.8-9.891a.865.865,0,0,1,.879-.855H.352c.621,0,.949.445.949,1.1v6.129H2.789a.868.868,0,0,1,.891.855.856.856,0,0,1-.891.867Z" transform="translate(11.953 20.414)" fill="#212121"/>
</svg>
