<svg xmlns="http://www.w3.org/2000/svg" width="20.271" height="22.612" viewBox="0 0 20.271 22.612">
  <path id="Path_3650" data-name="Path 3650" d="M3.9-.591H20.926c1.01,0,1.622-.526,1.622-1.3,0-1.074-1.1-2.041-2.02-3-.709-.741-.9-2.267-.988-3.5-.075-4.125-1.171-6.972-4.028-8a3.251,3.251,0,0,0-3.1-2.514,3.239,3.239,0,0,0-3.094,2.514c-2.857,1.031-3.953,3.878-4.028,8C5.2-7.154,5.006-5.629,4.3-4.888c-.935.956-2.02,1.923-2.02,3C2.277-1.117,2.879-.591,3.9-.591Zm8.508,4.3A3.23,3.23,0,0,0,15.705.87H9.12A3.227,3.227,0,0,0,12.407,3.706Z" transform="translate(-2.277 18.906)" fill="#212121"/>
</svg>
