<svg xmlns="http://www.w3.org/2000/svg" width="20.271" height="22.193" viewBox="0 0 20.271 22.193">
  <path id="Path_3648" data-name="Path 3648" d="M3.9-.591H14.717a2.294,2.294,0,0,1-2.31,2.374,2.285,2.285,0,0,1-2.3-2.374H8.433a3.989,3.989,0,0,0,3.975,3.878A3.984,3.984,0,0,0,16.393-.591h4.533c1.01,0,1.622-.526,1.622-1.3,0-1.074-1.1-2.041-2.02-3-.709-.741-.9-2.267-.988-3.5-.075-4.232-1.171-6.972-4.028-8a3.213,3.213,0,0,0-3.1-2.514,3.2,3.2,0,0,0-3.094,2.514c-2.857,1.031-3.953,3.771-4.028,8C5.2-7.154,5.006-5.629,4.3-4.888c-.935.956-2.02,1.923-2.02,3C2.277-1.117,2.879-.591,3.9-.591Zm.462-1.622v-.129c.193-.322.838-.945,1.4-1.579C6.531-4.78,6.9-6.155,6.993-8.261c.086-4.684,1.482-6.187,3.319-6.682a.476.476,0,0,0,.43-.473,1.736,1.736,0,0,1,1.665-1.912c1,0,1.633.784,1.676,1.912a.466.466,0,0,0,.419.473c1.848.494,3.244,2,3.33,6.682.1,2.105.462,3.48,1.225,4.34a19.115,19.115,0,0,1,1.4,1.579v.129Z" transform="translate(-2.277 18.906)" fill="#212121"/>
</svg>
