<svg xmlns="http://www.w3.org/2000/svg" width="21.762" height="17.766" viewBox="0 0 21.762 17.766">
  <path id="Path_3668" data-name="Path 3668" d="M2.988-8.461a1.074,1.074,0,0,0,.363.785L11.133.094a1.068,1.068,0,0,0,.762.328A1,1,0,0,0,12.926-.586a1.026,1.026,0,0,0-.293-.738L10.008-4l-3.949-3.6,2.836.176H23.719A.994.994,0,0,0,24.75-8.461.994.994,0,0,0,23.719-9.5H8.895L6.07-9.328l3.938-3.6L12.633-15.6a1.046,1.046,0,0,0,.293-.738,1,1,0,0,0-1.031-1.008,1.048,1.048,0,0,0-.785.352L3.352-9.246A1.074,1.074,0,0,0,2.988-8.461Z" transform="translate(-2.988 17.344)" fill="#212121"/>
</svg>
