<svg xmlns="http://www.w3.org/2000/svg" width="21.762" height="17.766" viewBox="0 0 21.762 17.766">
  <path id="Path_3675" data-name="Path 3675" d="M24.75-8.461a1.061,1.061,0,0,0-.352-.785l-7.77-7.746a1.048,1.048,0,0,0-.785-.352.989.989,0,0,0-1.02,1.008,1.036,1.036,0,0,0,.281.738l2.625,2.672,3.938,3.6L18.844-9.5H4.02A.994.994,0,0,0,2.988-8.461.994.994,0,0,0,4.02-7.418H18.844l2.836-.176L17.73-4,15.105-1.324a1.017,1.017,0,0,0-.281.738A.989.989,0,0,0,15.844.422a1.068,1.068,0,0,0,.762-.328L24.4-7.676A1.061,1.061,0,0,0,24.75-8.461Z" transform="translate(-2.988 17.344)" fill="#212121"/>
</svg>
