<svg xmlns="http://www.w3.org/2000/svg" width="14.48" height="23.042" viewBox="0 0 14.48 23.042">
  <path id="Path_3644" data-name="Path 3644" d="M5.113,3.749c.526,0,.838-.3,1.8-1.235l4.2-4.136a.136.136,0,0,1,.193,0l4.2,4.136c.967.935,1.278,1.235,1.8,1.235.72,0,1.139-.473,1.139-1.311V-16.21c0-2.041-1.021-3.083-3.04-3.083h-8.4c-2.02,0-3.04,1.042-3.04,3.083V2.438C3.975,3.276,4.394,3.749,5.113,3.749Zm.881-2.9c-.15.15-.322.107-.322-.107v-16.93A1.262,1.262,0,0,1,7.1-17.6H15.34a1.259,1.259,0,0,1,1.418,1.407V.741c0,.215-.161.258-.322.107L11.784-3.663a.774.774,0,0,0-1.139,0Z" transform="translate(-3.975 19.293)" fill="#212121"/>
</svg>
