<svg xmlns="http://www.w3.org/2000/svg" width="24.793" height="21.119" viewBox="0 0 24.793 21.119">
  <path id="Path_3649" data-name="Path 3649" d="M2.191-16.747a.819.819,0,0,0,.795.816H6.617L8.336-4.136c.226,1.525,1.031,2.481,2.589,2.481H23.461a.793.793,0,0,0,.784-.806.793.793,0,0,0-.784-.806H11.107c-.612,0-.988-.43-1.085-1.085L9.851-5.479H23.482c1.568,0,2.374-.967,2.6-2.5l.859-5.683a3.31,3.31,0,0,0,.043-.408.878.878,0,0,0-.978-.87H8.476l-.215-1.364c-.107-.827-.408-1.246-1.5-1.246H2.986A.817.817,0,0,0,2.191-16.747ZM10.022,1.826a1.746,1.746,0,0,0,3.491,0,1.746,1.746,0,0,0-3.491,0Zm10.044,0A1.751,1.751,0,1,0,21.817.086,1.735,1.735,0,0,0,20.066,1.826Z" transform="translate(-2.191 17.553)" fill="#212121"/>
</svg>
