<svg xmlns="http://www.w3.org/2000/svg" width="27.047" height="23.039" viewBox="0 0 27.047 23.039">
  <path id="Path_3643" data-name="Path 3643" d="M11.918-1.8H25.594a.865.865,0,0,0,.855-.879.865.865,0,0,0-.855-.879H12.117c-.668,0-1.078-.469-1.184-1.184l-.187-1.23H25.617c1.711,0,2.59-1.055,2.836-2.73l.938-6.2a3.611,3.611,0,0,0,.047-.445.958.958,0,0,0-1.066-.949H9.234l-.223-1.488c-.117-.9-.445-1.359-1.641-1.359H3.258a.891.891,0,0,0-.867.879.893.893,0,0,0,.867.891H7.219L9.094-4.512C9.34-2.848,10.219-1.8,11.918-1.8ZM27.445-14.531l-.832,5.613c-.094.727-.48,1.172-1.172,1.172l-14.953.012-1-6.8ZM12.844,3.891a1.883,1.883,0,0,0,1.9-1.9,1.9,1.9,0,0,0-3.809,0A1.886,1.886,0,0,0,12.844,3.891Zm10.957,0a1.9,1.9,0,1,0-1.91-1.9A1.886,1.886,0,0,0,23.8,3.891Z" transform="translate(-2.391 19.148)" fill="#212121"/>
</svg>
