<svg xmlns="http://www.w3.org/2000/svg" width="23.906" height="23.906" viewBox="0 0 23.906 23.906">
  <path id="Path_3670" data-name="Path 3670" d="M14.051,3.492A12.042,12.042,0,0,0,26-8.461,12.044,12.044,0,0,0,14.039-20.414,12.032,12.032,0,0,0,2.1-8.461,12.049,12.049,0,0,0,14.051,3.492ZM12.727-2.73A1.22,1.22,0,0,1,11.7-3.3L8.754-6.914a1.274,1.274,0,0,1-.281-.762.945.945,0,0,1,.938-.961,1.014,1.014,0,0,1,.891.492l2.379,3.07,5-8.039a1.021,1.021,0,0,1,.832-.539.94.94,0,0,1,1,.9,1.7,1.7,0,0,1-.293.773L13.711-3.3A1.129,1.129,0,0,1,12.727-2.73Z" transform="translate(-2.098 20.414)" fill="#212121"/>
</svg>
