<svg xmlns="http://www.w3.org/2000/svg" width="21.914" height="21.914" viewBox="0 0 21.914 21.914">
  <path id="Path_3667" data-name="Path 3667" d="M12.88,3.2A11.038,11.038,0,0,0,23.837-7.756,11.04,11.04,0,0,0,12.869-18.713,11.029,11.029,0,0,0,1.923-7.756,11.045,11.045,0,0,0,12.88,3.2Zm0-1.826A9.087,9.087,0,0,1,3.76-7.756a9.078,9.078,0,0,1,9.109-9.131,9.112,9.112,0,0,1,9.142,9.131A9.089,9.089,0,0,1,12.88,1.375Zm1.063-5.661,4.211-4.479a.8.8,0,0,0,.032-1.128.787.787,0,0,0-1.149-.021l-4.157,4.4-4.157-4.4a.79.79,0,0,0-1.16.021.819.819,0,0,0,.032,1.128l4.222,4.479A1.323,1.323,0,0,0,13.943-4.286Z" transform="translate(-1.923 18.713)" fill="#212121"/>
</svg>
