<svg xmlns="http://www.w3.org/2000/svg" width="21.914" height="21.914" viewBox="0 0 21.914 21.914">
  <path id="Path_3656" data-name="Path 3656" d="M12.88,3.2A11.038,11.038,0,0,0,23.837-7.756,11.04,11.04,0,0,0,12.869-18.713,11.029,11.029,0,0,0,1.923-7.756,11.045,11.045,0,0,0,12.88,3.2Zm0-1.826A9.087,9.087,0,0,1,3.76-7.756a9.078,9.078,0,0,1,9.109-9.131,9.112,9.112,0,0,1,9.142,9.131A9.089,9.089,0,0,1,12.88,1.375ZM10.431-2.438a.867.867,0,0,0,1.139-.032l4.469-4.222a1.436,1.436,0,0,0,0-2.105l-4.469-4.211a.809.809,0,0,0-1.128-.032.778.778,0,0,0-.021,1.149l4.415,4.146L10.42-3.588A.8.8,0,0,0,10.431-2.438Z" transform="translate(-1.923 18.713)" fill="#212121"/>
</svg>
