<svg xmlns="http://www.w3.org/2000/svg" width="56.25" height="48.258" viewBox="0 0 56.25 48.258">
  <path id="Path_3676" data-name="Path 3676" d="M16.148-2.3H30.164V-14.6l.164-3.187-1.359,1.523-3.187,3.422a1.768,1.768,0,0,1-1.359.586,1.793,1.793,0,0,1-1.289-.492,1.644,1.644,0,0,1-.516-1.242,1.668,1.668,0,0,1,.586-1.266l7.477-7.219A2.369,2.369,0,0,1,31.418-23a1.893,1.893,0,0,1,.738-.152,1.784,1.784,0,0,1,.738.152,2.79,2.79,0,0,1,.738.527l7.477,7.219a1.7,1.7,0,0,1,.563,1.266,1.627,1.627,0,0,1-.527,1.242,1.8,1.8,0,0,1-1.277.492,1.7,1.7,0,0,1-1.336-.586L35.32-16.266l-1.336-1.5.141,3.164V-2.3H49.336a12.5,12.5,0,0,0,5.684-1.23,9.523,9.523,0,0,0,3.82-3.352A8.678,8.678,0,0,0,60.211-11.7a10.781,10.781,0,0,0-1.887-6.152,11.123,11.123,0,0,0-5.168-4.137,18.509,18.509,0,0,0-1.242-6.867A16.492,16.492,0,0,0,48.445-34.3a15.673,15.673,0,0,0-5.2-3.574,16.24,16.24,0,0,0-6.422-1.266,14.807,14.807,0,0,0-5.414.949,15.52,15.52,0,0,0-4.348,2.543,17.515,17.515,0,0,0-3.27,3.586,8.277,8.277,0,0,0-3.961-.07,10.242,10.242,0,0,0-3.738,1.664,9.68,9.68,0,0,0-2.8,3.07,8.717,8.717,0,0,0-1.148,4.2A9.031,9.031,0,0,0,7.781-21.27a10.162,10.162,0,0,0-2.824,3.738,11.687,11.687,0,0,0-1,4.828,9.5,9.5,0,0,0,1.523,5.25A10.754,10.754,0,0,0,9.727-3.691,13.9,13.9,0,0,0,16.148-2.3ZM32.133,9.117a1.833,1.833,0,0,0,1.359-.574A1.864,1.864,0,0,0,34.055,7.2V-3.07A1.8,1.8,0,0,1,33.48-1.8a1.853,1.853,0,0,1-1.348.539A1.825,1.825,0,0,1,30.809-1.8a1.9,1.9,0,0,1-.6-1.266V7.2a1.962,1.962,0,0,0,1.922,1.922Z" transform="translate(-3.961 39.141)" fill="#212121"/>
</svg>
