<svg xmlns="http://www.w3.org/2000/svg" width="21.409" height="19.776" viewBox="0 0 21.409 19.776">
  <path id="Path_3663" data-name="Path 3663" d="M6.112,2.148H20.786c2.245,0,3.362-1.117,3.362-3.33V-14.3c0-2.213-1.117-3.33-3.362-3.33H6.112q-3.368,0-3.373,3.33V-1.182Q2.739,2.154,6.112,2.148ZM5.951.419a1.334,1.334,0,0,1-1.482-1.5v-10.13a1.339,1.339,0,0,1,1.482-1.5H20.926a1.347,1.347,0,0,1,1.493,1.5v10.13a1.342,1.342,0,0,1-1.493,1.5Zm5.393-9.281h.634c.376,0,.5-.107.5-.483v-.634c0-.376-.129-.494-.5-.494h-.634c-.376,0-.5.118-.5.494v.634C10.839-8.97,10.968-8.862,11.344-8.862Zm3.577,0h.623c.376,0,.5-.107.5-.483v-.634c0-.376-.129-.494-.5-.494h-.623c-.387,0-.5.118-.5.494v.634C14.416-8.97,14.534-8.862,14.921-8.862Zm3.566,0h.634c.376,0,.494-.107.494-.483v-.634c0-.376-.118-.494-.494-.494h-.634c-.376,0-.5.118-.5.494v.634C17.982-8.97,18.111-8.862,18.487-8.862ZM7.777-5.35h.634c.376,0,.494-.107.494-.483v-.634c0-.376-.118-.483-.494-.483H7.777c-.376,0-.5.107-.5.483v.634C7.272-5.457,7.4-5.35,7.777-5.35Zm3.566,0h.634c.376,0,.5-.107.5-.483v-.634c0-.376-.129-.483-.5-.483h-.634c-.376,0-.5.107-.5.483v.634C10.839-5.457,10.968-5.35,11.344-5.35Zm3.577,0h.623c.376,0,.5-.107.5-.483v-.634c0-.376-.129-.483-.5-.483h-.623c-.387,0-.5.107-.5.483v.634C14.416-5.457,14.534-5.35,14.921-5.35Zm3.566,0h.634c.376,0,.494-.107.494-.483v-.634c0-.376-.118-.483-.494-.483h-.634c-.376,0-.5.107-.5.483v.634C17.982-5.457,18.111-5.35,18.487-5.35ZM7.777-1.826h.634c.376,0,.494-.118.494-.494v-.634c0-.376-.118-.483-.494-.483H7.777c-.376,0-.5.107-.5.483v.634C7.272-1.944,7.4-1.826,7.777-1.826Zm3.566,0h.634c.376,0,.5-.118.5-.494v-.634c0-.376-.129-.483-.5-.483h-.634c-.376,0-.5.107-.5.483v.634C10.839-1.944,10.968-1.826,11.344-1.826Zm3.577,0h.623c.376,0,.5-.118.5-.494v-.634c0-.376-.129-.483-.5-.483h-.623c-.387,0-.5.107-.5.483v.634C14.416-1.944,14.534-1.826,14.921-1.826Z" transform="translate(-2.739 17.628)" fill="#212121"/>
</svg>
