<svg xmlns="http://www.w3.org/2000/svg" width="19.067" height="23.192" viewBox="0 0 19.067 23.192">
  <path id="Path_3647" data-name="Path 3647" d="M11.419-12.9a.782.782,0,0,1,.849-.795.785.785,0,0,1,.859.795v-5.876a.865.865,0,0,0-.859-.838.855.855,0,0,0-.849.838Zm1.74-.687V-7.3l-.064,1.525.666-.709,1.633-1.729a.785.785,0,0,1,.6-.269.783.783,0,0,1,.816.784.8.8,0,0,1-.269.591l-3.631,3.5a.842.842,0,0,1-.634.29.848.848,0,0,1-.645-.29L8-7.111A.8.8,0,0,1,7.734-7.7a.774.774,0,0,1,.806-.784.808.808,0,0,1,.612.269l1.622,1.729.688.72L11.387-7.3v-6.284H6.112c-2.245,0-3.373,1.117-3.373,3.33V.247c0,2.213,1.128,3.33,3.373,3.33H18.434c2.245,0,3.373-1.117,3.373-3.33V-10.259c0-2.213-1.128-3.33-3.373-3.33Z" transform="translate(-2.739 19.615)" fill="#212121"/>
</svg>
