<svg xmlns="http://www.w3.org/2000/svg" width="19.067" height="23.192" viewBox="0 0 19.067 23.192">
  <path id="Path_3646" data-name="Path 3646" d="M12.278-3.491a.823.823,0,0,0,.623-.279l3.631-3.513a.75.75,0,0,0,.247-.559A.742.742,0,0,0,16-8.594a.784.784,0,0,0-.58.258L13.793-6.606l-.73.763.064-1.611V-18.777a.855.855,0,0,0-.849-.838.865.865,0,0,0-.859.838V-7.455l.075,1.611-.73-.763L9.131-8.336a.79.79,0,0,0-.591-.258.74.74,0,0,0-.773.752.76.76,0,0,0,.258.559l3.631,3.513A.823.823,0,0,0,12.278-3.491ZM6.112,3.577H18.434c2.245,0,3.373-1.117,3.373-3.33V-10.474c0-2.213-1.128-3.33-3.373-3.33h-3v1.729H18.4a1.519,1.519,0,0,1,1.676,1.7V.15a1.519,1.519,0,0,1-1.676,1.7H6.134A1.507,1.507,0,0,1,4.469.15V-10.377a1.507,1.507,0,0,1,1.665-1.7H9.109V-13.8h-3c-2.245,0-3.373,1.117-3.373,3.33V.247C2.739,2.46,3.867,3.577,6.112,3.577Z" transform="translate(-2.739 19.615)" fill="#212121"/>
</svg>
