<svg xmlns="http://www.w3.org/2000/svg" width="21.914" height="21.914" viewBox="0 0 21.914 21.914">
  <path id="Path_3659" data-name="Path 3659" d="M12.88,3.2A11.038,11.038,0,0,0,23.837-7.756,11.04,11.04,0,0,0,12.869-18.713,11.029,11.029,0,0,0,1.923-7.756,11.045,11.045,0,0,0,12.88,3.2ZM6.456-14.717a9.539,9.539,0,0,1,3.824-2.17,8.582,8.582,0,0,0-1.848,3.126A7.355,7.355,0,0,1,6.456-14.717Zm9.034-2.159a9.645,9.645,0,0,1,3.813,2.17,7.343,7.343,0,0,1-1.977.945A8.764,8.764,0,0,0,15.49-16.876Zm-5.672,3.47a5.476,5.476,0,0,1,2.363-3.233v3.48A17.356,17.356,0,0,1,9.818-13.406Zm3.771-3.233a5.51,5.51,0,0,1,2.353,3.233,17.375,17.375,0,0,1-2.353.247ZM3.405-8.465A9.49,9.49,0,0,1,5.5-13.7,8.521,8.521,0,0,0,8.024-12.45a18.765,18.765,0,0,0-.559,3.985Zm14.889,0a18.765,18.765,0,0,0-.559-3.985,8.574,8.574,0,0,0,2.514-1.235,9.359,9.359,0,0,1,2.105,5.221Zm-4.705,0v-3.287a16.044,16.044,0,0,0,2.761-.333,17.94,17.94,0,0,1,.5,3.62Zm-4.684,0a18.738,18.738,0,0,1,.5-3.62,16.041,16.041,0,0,0,2.771.333v3.287Zm-5.5,1.407H7.466a19.088,19.088,0,0,0,.559,4.039A8.569,8.569,0,0,0,5.532-1.783,9.471,9.471,0,0,1,3.405-7.058Zm5.5,0h3.276v3.352a16.919,16.919,0,0,0-2.75.322A16.914,16.914,0,0,1,8.905-7.058Zm4.684,3.352V-7.058h3.266a16.914,16.914,0,0,1-.526,3.674A16.785,16.785,0,0,0,13.589-3.706Zm4.146.688a19.088,19.088,0,0,0,.559-4.039h4.061a9.471,9.471,0,0,1-2.127,5.274A8.569,8.569,0,0,0,17.735-3.019Zm-4.146.72a15.511,15.511,0,0,1,2.331.247,5.563,5.563,0,0,1-2.331,3.19ZM9.84-2.052A15.507,15.507,0,0,1,12.182-2.3V1.139A5.526,5.526,0,0,1,9.84-2.052Zm7.477.344a7.684,7.684,0,0,1,1.955.935A9.676,9.676,0,0,1,15.5,1.364,8.783,8.783,0,0,0,17.316-1.708ZM6.488-.773a7.684,7.684,0,0,1,1.955-.935A8.636,8.636,0,0,0,10.27,1.364,9.718,9.718,0,0,1,6.488-.773Z" transform="translate(-1.923 18.713)" fill="#212121"/>
</svg>
