<svg xmlns="http://www.w3.org/2000/svg" width="29.358" height="19.621" viewBox="0 0 29.358 19.621">
  <path id="Path_3654" data-name="Path 3654" d="M25.223,1.558a.794.794,0,0,0,1.171,0,.811.811,0,0,0,0-1.171L8.433-17.563a.843.843,0,0,0-1.182,0,.85.85,0,0,0,0,1.171ZM16.876-16.951a16.094,16.094,0,0,0-5.146.849L13.148-14.7a12.766,12.766,0,0,1,3.728-.559c7.068,0,12.794,6.23,12.794,7.509,0,.87-1.88,3.212-4.855,5.038l1.321,1.321c3.395-2.2,5.414-5.092,5.414-6.359C31.55-9.947,25.556-16.951,16.876-16.951Zm0,18.412A16.847,16.847,0,0,0,22.365.537L20.958-.87a13.645,13.645,0,0,1-4.082.634c-7.079,0-12.8-5.994-12.8-7.509C4.071-8.5,6.059-11,9.228-12.9L7.9-14.233c-3.577,2.213-5.7,5.188-5.7,6.488C2.191-5.554,8.3,1.461,16.876,1.461Zm5.511-6.854A5.616,5.616,0,0,0,22.9-7.745a5.988,5.988,0,0,0-6.026-6.016,5.925,5.925,0,0,0-2.363.494ZM16.876-1.729a6.009,6.009,0,0,0,2.632-.623l-8.057-8.057a5.932,5.932,0,0,0-.623,2.664A6.054,6.054,0,0,0,16.876-1.729Z" transform="translate(-2.191 17.805)" fill="#212121"/>
</svg>
