<svg xmlns="http://www.w3.org/2000/svg" width="29.358" height="18.412" viewBox="0 0 29.358 18.412">
  <path id="Path_3657" data-name="Path 3657" d="M16.876,1.461c8.68,0,14.674-7.015,14.674-9.206s-6-9.206-14.674-9.206c-8.562,0-14.685,7-14.685,9.206S8.3,1.461,16.876,1.461Zm0-1.7c-7.079,0-12.8-5.994-12.8-7.509,0-1.278,5.726-7.509,12.8-7.509,7.047,0,12.794,6.23,12.794,7.509C29.67-6.23,23.923-.236,16.876-.236Zm0-1.493A6.042,6.042,0,0,0,22.9-7.745a5.988,5.988,0,0,0-6.026-6.016,5.986,5.986,0,0,0-6.048,6.016A6.061,6.061,0,0,0,16.876-1.729Zm0-4.018a2.013,2.013,0,0,1-2.02-2,2.006,2.006,0,0,1,2.02-2,2,2,0,0,1,2.009,2A2.01,2.01,0,0,1,16.876-5.747Z" transform="translate(-2.191 16.951)" fill="#212121"/>
</svg>
