<svg xmlns="http://www.w3.org/2000/svg" width="21.936" height="22.806" viewBox="0 0 21.936 22.806">
  <path id="Path_3652" data-name="Path 3652" d="M7.7-3.878C7.638.183,10.936,3.266,16.1,3.309l1.525.011a12.967,12.967,0,0,0,3.1-.258c.87-.226,1.719-.752,1.719-1.8a1.793,1.793,0,0,0-.258-.978c-.086-.14-.075-.258.064-.312a1.957,1.957,0,0,0,1.268-1.815A2.107,2.107,0,0,0,23.139-3.1c-.129-.161-.107-.3.086-.43a1.868,1.868,0,0,0,.849-1.644,1.893,1.893,0,0,0-.462-1.332c-.172-.161-.14-.269.043-.43a1.815,1.815,0,0,0,.569-1.429,1.921,1.921,0,0,0-1.934-1.944H18.369c-1,0-1.654-.516-1.654-1.332,0-1.5,1.858-4.232,1.858-6.2a1.508,1.508,0,0,0-1.536-1.644c-.795,0-1.192.548-1.622,1.386a53.582,53.582,0,0,1-5.543,8.067A9.446,9.446,0,0,0,7.7-3.878ZM2.288-3.8c0,3.3,2.063,6.059,4.813,6.059H9.066A7.127,7.127,0,0,1,6.209-3.91,9.664,9.664,0,0,1,8.3-9.9H6.692C4.2-9.9,2.288-7.219,2.288-3.8Z" transform="translate(-2.288 19.486)" fill="#212121"/>
</svg>
