<svg xmlns="http://www.w3.org/2000/svg" width="22.677" height="24.213" viewBox="0 0 22.677 24.213">
  <path id="Path_3651" data-name="Path 3651" d="M1.923-3.792c0,3.609,2.342,6.628,5.188,6.628h3.556a10.815,10.815,0,0,0,5.049,1.192H17.2a15.376,15.376,0,0,0,3.266-.269,2.84,2.84,0,0,0,2.417-2.718,2.337,2.337,0,0,0-.129-.773,2.78,2.78,0,0,0,1.16-2.256,2.837,2.837,0,0,0-.247-1.225,2.876,2.876,0,0,0,.795-2.03,2.963,2.963,0,0,0-.354-1.429A2.925,2.925,0,0,0,24.6-8.357a2.836,2.836,0,0,0-2.847-2.868H17.682c-.258,0-.43-.118-.43-.333,0-1.171,1.837-3.889,1.837-6.069a2.433,2.433,0,0,0-2.471-2.557c-1.053,0-1.751.548-2.449,1.88a45.017,45.017,0,0,1-5.414,7.853H6.7C4.061-10.452,1.923-7.455,1.923-3.792Zm6.241-.054A8.523,8.523,0,0,1,10.151-9.6a52.806,52.806,0,0,0,5.468-7.96c.4-.816.677-1,1.063-1,.462,0,.784.333.784.935,0,1.74-1.837,4.383-1.837,6.069A2.048,2.048,0,0,0,17.918-9.6h3.835a1.209,1.209,0,0,1,1.225,1.246A1.558,1.558,0,0,1,22.387-7.1a.409.409,0,0,0-.054.6,2.113,2.113,0,0,1,.5,1.257,1.609,1.609,0,0,1-.73,1.321.6.6,0,0,0-.215.806,2.234,2.234,0,0,1,.4,1.128c0,.58-.365,1.021-1.139,1.418a.42.42,0,0,0-.2.58,2.437,2.437,0,0,1,.312,1.031c0,.526-.387.945-1.182,1.139a12.433,12.433,0,0,1-2.868.226l-1.482-.021C11.226,2.342,8.164-.193,8.164-3.846Zm-4.619.054c0-2.771,1.5-5.038,3.158-5.038h1a10.066,10.066,0,0,0-1.16,4.952,7.122,7.122,0,0,0,2.03,5.092H7.111C5.21,1.214,3.545-1.074,3.545-3.792Z" transform="translate(-1.923 20.185)" fill="#212121"/>
</svg>
