<svg xmlns="http://www.w3.org/2000/svg" width="22.344" height="21.022" viewBox="0 0 22.344 21.022">
  <path id="Path_3658" data-name="Path 3658" d="M10.85-.5l5.414,3.04a2.4,2.4,0,0,0,.494.2V-14.792l-5.307-3.244a1.828,1.828,0,0,0-.6-.247ZM2.739,1.182A1.122,1.122,0,0,0,3.964,2.417a1.842,1.842,0,0,0,.9-.279L9.378-.3V-18.1c-.193.1-.408.2-.6.312L3.685-14.867a1.679,1.679,0,0,0-.945,1.59ZM18.219,2.707a1.221,1.221,0,0,0,.322-.14l5.6-3.18a1.679,1.679,0,0,0,.945-1.59v-14.47a1.117,1.117,0,0,0-1.225-1.235,1.842,1.842,0,0,0-.9.279L18.219-15Z" transform="translate(-2.739 18.283)" fill="#212121"/>
</svg>
