<svg xmlns="http://www.w3.org/2000/svg" width="24.375" height="23.121" viewBox="0 0 24.375 23.121">
  <path id="Path_3666" data-name="Path 3666" d="M4.313,2.648a2,2,0,0,0,.973-.316L11.25-.879l6.48,3.633a2.724,2.724,0,0,0,1.313.352,2.394,2.394,0,0,0,1.172-.3L26.344-.68a1.821,1.821,0,0,0,1.02-1.734V-18.2a1.21,1.21,0,0,0-1.324-1.348,2.045,2.045,0,0,0-.984.3l-6.211,3.457-6.363-3.9a2.371,2.371,0,0,0-1.184-.328,2.423,2.423,0,0,0-1.207.328L4-16.219a1.859,1.859,0,0,0-1.008,1.746V1.289A1.219,1.219,0,0,0,4.313,2.648Zm6.176-5.391L5.2.164a.518.518,0,0,1-.176.059c-.094,0-.152-.07-.152-.187V-14.016a.68.68,0,0,1,.387-.645l4.8-2.812c.152-.082.281-.152.422-.234Zm1.887.188V-17.461c.117.07.258.141.375.211l5.227,3.188V.586c-.164-.094-.34-.176-.516-.27ZM19.863.8V-14.18l5.285-2.883a.349.349,0,0,1,.164-.059c.105,0,.164.07.164.188V-2.883a.705.705,0,0,1-.387.656L20.391.5A5.924,5.924,0,0,1,19.863.8Z" transform="translate(-2.988 20.016)" fill="#212121"/>
</svg>
