<svg xmlns="http://www.w3.org/2000/svg" width="20.473" height="21.703" viewBox="0 0 20.473 21.703">
  <path id="Path_3641" data-name="Path 3641" d="M.006-8.25a5.316,5.316,0,0,0,5.063-5.508A5.185,5.185,0,0,0,.006-19.113a5.236,5.236,0,0,0-5.062,5.379A5.309,5.309,0,0,0,.006-8.25Zm0-1.77A3.492,3.492,0,0,1-3.17-13.734,3.4,3.4,0,0,1,.006-17.344a3.368,3.368,0,0,1,3.176,3.586A3.507,3.507,0,0,1,.006-10.02ZM-7.365,2.59H7.365C9.311,2.59,10.236,2,10.236.715,10.236-2.355,6.357-6.8.006-6.8S-10.236-2.355-10.236.715C-10.236,2-9.311,2.59-7.365,2.59ZM-7.916.82c-.3,0-.434-.082-.434-.328,0-1.922,2.977-5.52,8.355-5.52S8.35-1.43,8.35.492c0,.246-.117.328-.422.328Z" transform="translate(10.236 19.113)" fill="#212121"/>
</svg>
