<svg xmlns="http://www.w3.org/2000/svg" width="14.652" height="21.065" viewBox="0 0 14.652 21.065">
  <path id="Path_3673" data-name="Path 3673" d="M6.789,2.524h9.84c1.611,0,2.406-.806,2.406-2.557v-7.4c0-1.525-.612-2.331-1.858-2.5v-2.6c0-4.05-2.653-6-5.468-6s-5.468,1.955-5.468,6v2.6c-1.246.172-1.858.978-1.858,2.5v7.4C4.383,1.719,5.178,2.524,6.789,2.524ZM7.971-12.762c0-2.7,1.729-4.125,3.738-4.125s3.738,1.429,3.738,4.125v2.793H7.971ZM6.854.913c-.494,0-.741-.226-.741-.827V-7.541c0-.6.247-.816.741-.816h9.722c.494,0,.73.215.73.816V.086c0,.6-.236.827-.73.827Z" transform="translate(-4.383 18.541)" fill="#212121"/>
</svg>
