<svg xmlns="http://www.w3.org/2000/svg" width="19.711" height="25.125" viewBox="0 0 19.711 25.125">
  <path id="Path_3636" data-name="Path 3636" d="M-6.223,4.1H6.223c2.426,0,3.633-1.23,3.633-3.668V-10.207H1.371A1.939,1.939,0,0,1-.844-12.422v-8.6H-6.223c-2.414,0-3.633,1.242-3.633,3.68V.434Q-9.855,4.107-6.223,4.1ZM1.406-11.812H9.715a3,3,0,0,0-.973-1.523L2.285-19.91a2.973,2.973,0,0,0-1.523-.984v8.449A.563.563,0,0,0,1.406-11.812Zm-6,6.7a.762.762,0,0,1-.8-.762.771.771,0,0,1,.8-.773H4.629a.768.768,0,0,1,.785.773.758.758,0,0,1-.785.762Zm0,4.441a.762.762,0,0,1-.8-.762.771.771,0,0,1,.8-.773H4.629a.768.768,0,0,1,.785.773.758.758,0,0,1-.785.762Z" transform="translate(9.855 21.023)" fill="#212121"/>
</svg>
