<svg xmlns="http://www.w3.org/2000/svg" width="19.711" height="25.125" viewBox="0 0 19.711 25.125">
  <path id="Path_3635" data-name="Path 3635" d="M-6.223,4.1H6.223c2.426,0,3.633-1.23,3.633-3.668V-10.207a3.636,3.636,0,0,0-1.113-3.129L2.285-19.91A3.471,3.471,0,0,0-.656-21.023H-6.223c-2.414,0-3.633,1.242-3.633,3.68V.434Q-9.855,4.107-6.223,4.1Zm.082-1.887A1.631,1.631,0,0,1-7.969.4V-17.309a1.648,1.648,0,0,1,1.84-1.828H-.914v6.809a1.946,1.946,0,0,0,2.2,2.2h6.68V.4a1.635,1.635,0,0,1-1.84,1.816ZM1.5-11.895c-.469,0-.645-.187-.645-.656v-6.223l6.75,6.879Zm2.813,5H-4.582a.716.716,0,0,0-.738.715.718.718,0,0,0,.738.727H4.313a.706.706,0,0,0,.715-.727A.7.7,0,0,0,4.313-6.891Zm0,4.09H-4.582a.728.728,0,0,0-.738.738.706.706,0,0,0,.738.7H4.313a.693.693,0,0,0,.715-.7A.716.716,0,0,0,4.313-2.8Z" transform="translate(9.855 21.023)" fill="#212121"/>
</svg>
