<svg xmlns="http://www.w3.org/2000/svg" width="20.228" height="20.421" viewBox="0 0 20.228 20.421">
  <path id="Path_3653" data-name="Path 3653" d="M10.731-1.622a8.234,8.234,0,0,0,4.8-1.547l5.092,5.092a1.225,1.225,0,0,0,.881.354A1.178,1.178,0,0,0,22.7,1.053a1.183,1.183,0,0,0-.344-.859l-5.06-5.07a8.228,8.228,0,0,0,1.7-5.006,8.284,8.284,0,0,0-8.261-8.261A8.284,8.284,0,0,0,2.471-9.883,8.284,8.284,0,0,0,10.731-1.622Zm0-1.783A6.52,6.52,0,0,1,4.254-9.883a6.52,6.52,0,0,1,6.478-6.478,6.52,6.52,0,0,1,6.478,6.478A6.52,6.52,0,0,1,10.731-3.405Z" transform="translate(-2.471 18.144)" fill="#212121"/>
</svg>
