<svg xmlns="http://www.w3.org/2000/svg" width="23.16" height="19.701" viewBox="0 0 23.16 19.701">
  <path id="Path_3655" data-name="Path 3655" d="M15.211,2.095a2.072,2.072,0,0,0,1.472-.7l8.476-8a1.57,1.57,0,0,0,.548-1.149,1.551,1.551,0,0,0-.548-1.16l-8.476-7.928a2.019,2.019,0,0,0-1.45-.763A1.277,1.277,0,0,0,13.943-16.3v4.061h-.312C5.908-12.235,2.546-7.283,2.546.655c0,.924.526,1.439,1.106,1.439A1.359,1.359,0,0,0,4.974,1.3c1.869-3.513,4.5-4.565,8.658-4.565h.312v4.1A1.228,1.228,0,0,0,15.211,2.095Zm.612-2.31a.15.15,0,0,1-.15-.161V-4.533c0-.247-.107-.354-.354-.354H13.879c-5.1,0-8.357,1.772-9.625,4.469-.032.075-.054.107-.107.107S4.071-.344,4.071-.43C4.286-5.5,6.5-10.613,13.879-10.613h1.439c.247,0,.354-.107.354-.354v-4.265a.15.15,0,0,1,.161-.15.32.32,0,0,1,.183.086L23.665-7.96a.294.294,0,0,1,.107.2.272.272,0,0,1-.107.2L16.006-.312A.24.24,0,0,1,15.823-.215Z" transform="translate(-2.546 17.606)" fill="#212121"/>
</svg>
