<svg id="search" xmlns="http://www.w3.org/2000/svg" width="24.061" height="24.061" viewBox="0 0 24.061 24.061">
  <path id="Path_3625" data-name="Path 3625" d="M5.332,146.31l-.838,3.127-3.061.065a12.051,12.051,0,0,1-.089-11.234h0l2.725.5,1.194,2.709a7.18,7.18,0,0,0,.067,4.834Z" transform="translate(0 -131.77)" fill="#fbbb00"/>
  <path id="Path_3626" data-name="Path 3626" d="M273.184,208.176a12.026,12.026,0,0,1-4.289,11.629h0l-3.433-.175-.486-3.033a7.17,7.17,0,0,0,3.085-3.661h-6.433v-4.759h11.556Z" transform="translate(-249.333 -198.393)" fill="#518ef8"/>
  <path id="Path_3627" data-name="Path 3627" d="M48.636,316.28h0a12.034,12.034,0,0,1-18.128-3.68l3.9-3.191a7.155,7.155,0,0,0,10.31,3.663Z" transform="translate(-29.075 -294.869)" fill="#28b446"/>
  <path id="Path_3628" data-name="Path 3628" d="M46.988,2.77l-3.9,3.191A7.154,7.154,0,0,0,32.544,9.706L28.625,6.5h0A12.033,12.033,0,0,1,46.988,2.77Z" transform="translate(-27.279)" fill="#f14336"/>
</svg>
