<svg xmlns="http://www.w3.org/2000/svg" width="24.043" height="24.044" viewBox="0 0 24.043 24.044">
  <path id="_036-facebook" data-name="036-facebook" d="M20.805,0H3.242A3.24,3.24,0,0,0,0,3.24V20.8a3.24,3.24,0,0,0,3.24,3.24H11.9l.015-8.592H9.687a.527.527,0,0,1-.527-.525l-.011-2.77a.527.527,0,0,1,.527-.529H11.9V8.953c0-3.106,1.9-4.8,4.667-4.8h2.273a.527.527,0,0,1,.527.527V7.018a.527.527,0,0,1-.526.527h-1.4c-1.507,0-1.8.716-1.8,1.767v2.317h3.311a.527.527,0,0,1,.523.589l-.328,2.77a.527.527,0,0,1-.523.465H15.666l-.015,8.592h5.154a3.24,3.24,0,0,0,3.24-3.24V3.24A3.24,3.24,0,0,0,20.805,0Z" transform="translate(-0.002)" fill="#475993"/>
</svg>
