<svg xmlns="http://www.w3.org/2000/svg" width="20.801" height="26.449" viewBox="0 0 20.801 26.449">
  <path id="Path_3640" data-name="Path 3640" d="M.006-13.9a.933.933,0,0,0,.926-.914v-3.41L.861-19.98l.785.832,1.781,1.9a.855.855,0,0,0,.633.281.826.826,0,0,0,.855-.832.83.83,0,0,0-.281-.609L.674-22.23a.891.891,0,0,0-.668-.316.9.9,0,0,0-.68.316l-3.961,3.82a.83.83,0,0,0-.281.609.81.81,0,0,0,.844.832.88.88,0,0,0,.645-.281l1.781-1.9.785-.832-.07,1.758v3.41A.944.944,0,0,0,.006-13.9ZM-6.721,3.9H6.721C9.17,3.9,10.4,2.684,10.4.27V-11.191c0-2.414-1.23-3.633-3.68-3.633H1.2v8.637a1.2,1.2,0,0,1-1.2,1.172A1.2,1.2,0,0,1-1.2-6.187v-8.637h-5.52c-2.449,0-3.68,1.219-3.68,3.633V.27C-10.4,2.684-9.17,3.9-6.721,3.9Z" transform="translate(10.4 22.547)" fill="#212121"/>
</svg>
