<svg xmlns="http://www.w3.org/2000/svg" width="20.801" height="26.449" viewBox="0 0 20.801 26.449">
  <path id="Path_3637" data-name="Path 3637" d="M.006-5.273a.933.933,0,0,0,.926-.914V-18.223L.861-19.98l.8.832,1.77,1.9a.855.855,0,0,0,.633.281.819.819,0,0,0,.855-.832.818.818,0,0,0-.27-.609L.686-22.23a.914.914,0,0,0-.68-.316.914.914,0,0,0-.68.316l-3.961,3.82a.83.83,0,0,0-.281.609.816.816,0,0,0,.844.832.862.862,0,0,0,.645-.281l1.781-1.9.8-.832-.082,1.758V-6.187A.944.944,0,0,0,.006-5.273ZM-6.721,3.9H6.721C9.17,3.9,10.4,2.684,10.4.27v-11.7c0-2.414-1.23-3.633-3.68-3.633H3.451v1.887H6.686A1.657,1.657,0,0,1,8.514-11.32V.164A1.657,1.657,0,0,1,6.686,2.016H-6.7A1.644,1.644,0,0,1-8.514.164V-11.32A1.644,1.644,0,0,1-6.7-13.172h3.246v-1.887h-3.27c-2.449,0-3.68,1.219-3.68,3.633V.27C-10.4,2.684-9.17,3.9-6.721,3.9Z" transform="translate(10.4 22.547)" fill="#212121"/>
</svg>
