<svg id="_016-hydro_power" data-name="016-hydro power" xmlns="http://www.w3.org/2000/svg" width="49.565" height="62" viewBox="0 0 49.565 62">
  <g id="Group_4297" data-name="Group 4297" transform="translate(10.115 0)">
    <path id="Path_3698" data-name="Path 3698" d="M170.121,36.786a.8.8,0,0,0,.286.833l3.75,2.888a.8.8,0,0,0,.487.166.808.808,0,0,0,.12-.009.8.8,0,0,0,.532-.33l2.726-3.869a.8.8,0,0,0-.773-1.249l-1.946.3a15.325,15.325,0,0,0-29.216-2.91.8.8,0,1,0,1.477.606,13.726,13.726,0,0,1,26.158,2.543l-2.949.447A.8.8,0,0,0,170.121,36.786Zm4.632.423h0l.01,0,.873-.132-1.168,1.658L172.864,37.5Z" transform="translate(-145.994 -23.107)" fill="#2ab95e"/>
    <path id="Path_3699" data-name="Path 3699" d="M177.242,373.62a.8.8,0,0,0-.854.739,14.028,14.028,0,0,1-26.219,5.85l2.733-1.38a.8.8,0,0,0-.094-1.466l-4.556-1.608a.8.8,0,0,0-1.029.519L145.81,380.9a.8.8,0,0,0,1.124.946l1.808-.913a15.623,15.623,0,0,0,29.24-6.454.8.8,0,0,0-.739-.855Zm-28.736,3.919,2.006.708-1.773.895-.007,0-.011.006-.836.422Z" transform="translate(-145.775 -326.967)" fill="#2ab95e"/>
    <path id="Path_3700" data-name="Path 3700" d="M315.017,182.265l-7.806-10.9a.764.764,0,0,0-1.3,0l-7.806,10.86c-.015.021-.029.049-.042.071a8.717,8.717,0,0,0,.052,8.82,9.708,9.708,0,0,0,16.9-.008,8.662,8.662,0,0,0,.043-8.777C315.045,182.3,315.032,182.285,315.017,182.265Zm-1.388,8.046a8.111,8.111,0,0,1-14.126.009,7.041,7.041,0,0,1-.076-7.184l7.134-9.913,7.136,9.943A6.993,6.993,0,0,1,313.629,190.31Z" transform="translate(-276.782 -151.316)" fill="#2ab95e"/>
    <path id="Path_3701" data-name="Path 3701" d="M368.617,281.191a.8.8,0,0,0-.8.8,3.931,3.931,0,0,1-3.94,3.914.8.8,0,1,0,0,1.6,5.53,5.53,0,0,0,5.537-5.511A.8.8,0,0,0,368.617,281.191Z" transform="translate(-334.158 -246.842)" fill="#2ab95e"/>
  </g>
  <path id="Path_3702" data-name="Path 3702" d="M86.832,143.218a10.084,10.084,0,0,0-7.58-2.749,10.128,10.128,0,0,0-6.292,17.483,5.359,5.359,0,0,1,1.587,4.63l-.1.753a.958.958,0,0,0,.182.738,1.063,1.063,0,0,0,.363.3V168a2.7,2.7,0,0,0,2.649,2.734h4.492A2.745,2.745,0,0,0,84.842,168v-3.675c0-.046.132-.1.193-.163a1.023,1.023,0,0,0,.281-.739c0-.007,0-.015,0-.022l-.07-1.311s0,0,0,0a5.237,5.237,0,0,1,1.578-4.132c.142-.133.282-.273.415-.413A10.134,10.134,0,0,0,86.832,143.218ZM83.245,168a1.147,1.147,0,0,1-1.111,1.137H77.642A1.1,1.1,0,0,1,76.591,168v-.594h6.655Zm0-2.191H76.591v-1.331h6.655Zm4.621-12.237a8.47,8.47,0,0,1-1.792,2.871c-.112.119-.23.236-.351.35a6.826,6.826,0,0,0-2.076,5.382l.037.707H76.118l.012-.088a6.955,6.955,0,0,0-2.071-6,8.518,8.518,0,1,1,13.808-3.218Z" transform="translate(-69.773 -124.831)" fill="#2ab95e"/>
  <path id="Path_3703" data-name="Path 3703" d="M121.209,173.86h-1.923l-.053-5.532a.8.8,0,0,0-1.531-.3l-4.253,9.8a.779.779,0,0,0,.065.745.789.789,0,0,0,.667.351H116.1l.053,5.552a.8.8,0,0,0,1.531.319l4.253-9.8a.815.815,0,0,0-.065-.764A.806.806,0,0,0,121.209,173.86Zm-3.491,6.843-.025-2.585a.8.8,0,0,0-.8-.8h-1.5l2.273-5.226.025,2.575a.8.8,0,0,0,.8.788h1.5Z" transform="translate(-107.58 -148.32)" fill="#2ab95e"/>
</svg>
