<svg width="61" height="53" viewBox="0 0 61 53" fill="none" xmlns="http://www.w3.org/2000/svg">
<g id="industrial-fac-icon">
<g id="industry">
<path id="Path 3688" d="M38.893 31.2764H36.9736C36.7814 31.2764 36.597 31.3528 36.4611 31.4886C36.3252 31.6245 36.2488 31.8088 36.2488 32.001C36.2488 32.1931 36.3252 32.3774 36.4611 32.5133C36.597 32.6492 36.7814 32.7255 36.9736 32.7255H38.893C39.0852 32.7255 39.2696 32.6492 39.4055 32.5133C39.5414 32.3774 39.6178 32.1931 39.6178 32.001C39.6178 31.8088 39.5414 31.6245 39.4055 31.4886C39.2696 31.3528 39.0852 31.2764 38.893 31.2764Z" fill="#E4B148"/>
<path id="Path 3689" d="M40.0852 25.358H37.1091C36.9215 25.3649 36.7438 25.4443 36.6135 25.5794C36.4832 25.7145 36.4104 25.8949 36.4104 26.0826C36.4104 26.2703 36.4832 26.4507 36.6135 26.5858C36.7438 26.7209 36.9215 26.8003 37.1091 26.8072H40.0804C40.268 26.8003 40.4456 26.7209 40.5759 26.5858C40.7062 26.4507 40.7791 26.2703 40.7791 26.0826C40.7791 25.8949 40.7062 25.7145 40.5759 25.5794C40.4456 25.4443 40.268 25.3649 40.0804 25.358H40.0852Z" fill="#E4B148"/>
<path id="Path 3690" d="M35.7911 20.1657C35.7911 20.358 35.8676 20.5424 36.0036 20.6784C36.1396 20.8144 36.3241 20.8908 36.5164 20.8908H38.4358C38.6235 20.8839 38.8011 20.8045 38.9314 20.6694C39.0617 20.5343 39.1345 20.3539 39.1345 20.1662C39.1345 19.9785 39.0617 19.7981 38.9314 19.663C38.8011 19.5278 38.6235 19.4485 38.4358 19.4416H36.5164C36.4212 19.4415 36.3269 19.4601 36.239 19.4964C36.151 19.5328 36.071 19.5861 36.0036 19.6533C35.9363 19.7206 35.8828 19.8005 35.8464 19.8884C35.8099 19.9763 35.7911 20.0705 35.7911 20.1657V20.1657Z" fill="#E4B148"/>
<path id="Path 3691" d="M40.5951 14.9724C40.6925 14.9759 40.7896 14.9598 40.8807 14.925C40.9717 14.8902 41.0548 14.8374 41.125 14.7698C41.1952 14.7022 41.251 14.6211 41.2891 14.5314C41.3272 14.4417 41.3469 14.3453 41.3469 14.2478C41.3469 14.1504 41.3272 14.0539 41.2891 13.9642C41.251 13.8745 41.1952 13.7934 41.125 13.7258C41.0548 13.6582 40.9717 13.6054 40.8807 13.5706C40.7896 13.5358 40.6925 13.5197 40.5951 13.5232H37.6238C37.5264 13.5197 37.4293 13.5358 37.3382 13.5706C37.2472 13.6054 37.1641 13.6582 37.0939 13.7258C37.0237 13.7934 36.9679 13.8745 36.9298 13.9642C36.8916 14.0539 36.872 14.1504 36.872 14.2478C36.872 14.3453 36.8916 14.4417 36.9298 14.5314C36.9679 14.6211 37.0237 14.7022 37.0939 14.7698C37.1641 14.8374 37.2472 14.8902 37.3382 14.925C37.4293 14.9598 37.5264 14.9759 37.6238 14.9724H40.5951Z" fill="#E4B148"/>
<path id="Path 3692" d="M43.8695 8.31628C43.8692 8.25609 43.8613 8.19618 43.8461 8.13794L43.5205 0.807459C43.512 0.621401 43.4319 0.445838 43.2969 0.317446C43.1619 0.189053 42.9825 0.11776 42.7962 0.118459H34.0501C33.8638 0.11776 33.6845 0.189053 33.5495 0.317446C33.4145 0.445838 33.3344 0.621401 33.3258 0.807459L32.3851 21.9842L17.7073 16.4108C17.5984 16.3693 17.4811 16.355 17.3655 16.3693C17.2498 16.3835 17.1395 16.4258 17.044 16.4925C16.9485 16.5593 16.8708 16.6483 16.8177 16.752C16.7646 16.8556 16.7376 16.9707 16.7393 17.0871V22.0397L1.90345 16.4098C1.79292 16.3679 1.67386 16.3533 1.55649 16.3675C1.43911 16.3817 1.32694 16.4242 1.22962 16.4913C1.13229 16.5584 1.05272 16.6481 0.997743 16.7528C0.942766 16.8574 0.914029 16.9738 0.914001 17.092V43.119C0.914126 43.2138 0.933028 43.3077 0.969617 43.3952C1.00621 43.4826 1.05976 43.562 1.12718 43.6287C1.19461 43.6954 1.27457 43.748 1.36246 43.7837C1.45035 43.8193 1.54443 43.8372 1.63927 43.8363H37.2261C37.4137 43.8294 37.5914 43.7501 37.7217 43.6149C37.852 43.4798 37.9248 43.2994 37.9248 43.1117C37.9248 42.924 37.852 42.7436 37.7217 42.6085C37.5914 42.4734 37.4137 42.394 37.2261 42.3871H32.931L33.0948 38.7638H35.1507C35.2481 38.7674 35.3453 38.7513 35.4363 38.7165C35.5274 38.6817 35.6105 38.6289 35.6807 38.5612C35.7508 38.4936 35.8067 38.4125 35.8448 38.3228C35.8829 38.2331 35.9026 38.1367 35.9026 38.0392C35.9026 37.9418 35.8829 37.8453 35.8448 37.7556C35.8067 37.666 35.7508 37.5849 35.6807 37.5172C35.6105 37.4496 35.5274 37.3968 35.4363 37.362C35.3453 37.3272 35.2481 37.3111 35.1507 37.3147H33.1592L33.6212 26.8082H34.8651C35.0527 26.8013 35.2304 26.7219 35.3607 26.5868C35.491 26.4517 35.5638 26.2713 35.5638 26.0836C35.5638 25.8959 35.491 25.7155 35.3607 25.5804C35.2304 25.4453 35.0527 25.3659 34.8651 25.359H33.6856L34.1476 14.9734H35.3749C35.5625 14.9665 35.7402 14.8871 35.8705 14.752C36.0008 14.6169 36.0736 14.4365 36.0736 14.2488C36.0736 14.0611 36.0008 13.8807 35.8705 13.7456C35.7402 13.6104 35.5625 13.5311 35.3749 13.5242H34.2129L34.7403 1.5676H42.0992L42.3673 7.60974H38.235C38.1376 7.60617 38.0405 7.62227 37.9494 7.65707C37.8584 7.69187 37.7753 7.74467 37.7051 7.8123C37.6349 7.87994 37.5791 7.96103 37.541 8.05072C37.5028 8.14041 37.4832 8.23686 37.4832 8.33431C37.4832 8.43176 37.5028 8.52822 37.541 8.61791C37.5791 8.7076 37.6349 8.78868 37.7051 8.85632C37.7753 8.92395 37.8584 8.97675 37.9494 9.01155C38.0405 9.04636 38.1376 9.06245 38.235 9.05888H42.4356L42.8976 19.4445H40.6818C40.4942 19.4514 40.3166 19.5308 40.1863 19.6659C40.056 19.801 39.9832 19.9814 39.9832 20.1691C39.9832 20.3568 40.056 20.5372 40.1863 20.6723C40.3166 20.8075 40.4942 20.8868 40.6818 20.8937H42.9629L43.3772 30.2366C43.381 30.3317 43.4035 30.4251 43.4434 30.5115C43.4833 30.5979 43.5398 30.6756 43.6097 30.7402C43.6796 30.8047 43.7616 30.8549 43.8509 30.8878C43.9402 30.9207 44.0352 30.9357 44.1303 30.9319C44.2254 30.9282 44.3188 30.9057 44.4053 30.8658C44.4917 30.8259 44.5694 30.7694 44.634 30.6995C44.6986 30.6296 44.7488 30.5477 44.7817 30.4584C44.8146 30.3691 44.8296 30.2742 44.8258 30.1791L43.8598 8.4342C43.866 8.39684 43.8693 8.35904 43.8695 8.32115V8.31628ZM2.36356 18.1377L16.7393 23.5902V42.3862H12.6314V35.2155C12.6375 35.1257 12.6246 35.0356 12.5934 34.9511C12.5623 34.8666 12.5137 34.7896 12.4507 34.7252C12.3878 34.6608 12.3119 34.6104 12.2282 34.5773C12.1444 34.5443 12.0546 34.5293 11.9646 34.5333H6.38178C6.28715 34.5278 6.19238 34.5411 6.10295 34.5726C6.01353 34.604 5.93124 34.6528 5.86086 34.7163C5.79048 34.7798 5.73342 34.8566 5.69298 34.9423C5.65254 35.028 5.62954 35.1209 5.62531 35.2155V42.3862H2.36356V18.1377ZM11.1818 42.3862H7.07487V35.9815H11.1818V42.3862ZM27.0071 42.3862H22.9001V35.9815H27.0071V42.3862ZM28.4566 42.3862V35.2155C28.4612 35.1247 28.4467 35.0339 28.4141 34.9491C28.3814 34.8642 28.3313 34.7872 28.267 34.7229C28.2027 34.6586 28.1256 34.6085 28.0407 34.5759C27.9559 34.5432 27.8651 34.5287 27.7742 34.5333H22.1934C22.0995 34.528 22.0054 34.5415 21.9169 34.5731C21.8283 34.6047 21.7469 34.6538 21.6777 34.7174C21.6084 34.781 21.5526 34.8579 21.5136 34.9434C21.4746 35.029 21.4532 35.1215 21.4506 35.2155V42.3862H18.1888V18.1377L32.3257 23.5074L31.4795 42.3901L28.4566 42.3862Z" fill="#E4B148"/>
<path id="Path 3693" d="M36.0056 7.60583H35.9881C35.8004 7.61271 35.6228 7.69206 35.4925 7.82719C35.3622 7.96233 35.2894 8.14271 35.2894 8.33041C35.2894 8.5181 35.3622 8.69849 35.4925 8.83362C35.6228 8.96875 35.8004 9.0481 35.9881 9.05498H36.0056C36.103 9.05855 36.2002 9.04246 36.2912 9.00765C36.3823 8.97285 36.4654 8.92005 36.5356 8.85241C36.6058 8.78478 36.6616 8.7037 36.6997 8.61401C36.7378 8.52432 36.7575 8.42786 36.7575 8.33041C36.7575 8.23295 36.7378 8.1365 36.6997 8.04681C36.6616 7.95712 36.6058 7.87603 36.5356 7.8084C36.4654 7.74076 36.3823 7.68797 36.2912 7.65317C36.2002 7.61836 36.103 7.60226 36.0056 7.60583V7.60583Z" fill="#E4B148"/>
</g>
<g id="drop_circle">
<path id="Path 3694" d="M48.2981 28.6861C45.9149 28.6861 43.5852 29.3926 41.6036 30.7162C39.6221 32.0399 38.0776 33.9213 37.1656 36.1225C36.2536 38.3236 36.015 40.7457 36.4799 43.0825C36.9448 45.4192 38.0925 47.5657 39.7776 49.2504C41.4628 50.9351 43.6099 52.0824 45.9473 52.5472C48.2848 53.012 50.7075 52.7734 52.9094 51.8617C55.1112 50.9499 56.9931 49.4059 58.3171 47.4249C59.6412 45.4439 60.3479 43.1149 60.3479 40.7324C60.3479 37.5375 59.0783 34.4735 56.8186 32.2144C54.5588 29.9553 51.4939 28.6861 48.2981 28.6861V28.6861ZM48.2981 51.3295C46.2016 51.3295 44.1522 50.708 42.409 49.5436C40.6658 48.3791 39.3071 46.7241 38.5048 44.7877C37.7025 42.8514 37.4926 40.7206 37.9016 38.665C38.3106 36.6093 39.3202 34.7211 40.8027 33.239C42.2851 31.757 44.1739 30.7478 46.2301 30.3389C48.2864 29.93 50.4177 30.1398 52.3547 30.9419C54.2916 31.744 55.9471 33.1022 57.1119 34.8449C58.2766 36.5876 58.8983 38.6364 58.8983 40.7324C58.8983 43.5429 57.7815 46.2383 55.7936 48.2257C53.8057 50.213 51.1095 51.3295 48.2981 51.3295V51.3295Z" fill="#E4B148"/>
<path id="Path 3695" d="M53.8156 39.7949L48.8869 32.9175C48.8221 32.8211 48.7345 32.742 48.6319 32.6873C48.5293 32.6327 48.4149 32.6041 48.2986 32.6041C48.1823 32.6041 48.0679 32.6327 47.9653 32.6873C47.8627 32.742 47.7751 32.8211 47.7103 32.9175L42.7816 39.7705C42.7679 39.789 42.7553 39.8114 42.7436 39.8319C42.2333 40.7122 41.9673 41.7127 41.973 42.7301C41.9786 43.7476 42.2558 44.745 42.7757 45.6197C43.3299 46.5969 44.1336 47.4097 45.1047 47.975C46.0758 48.5403 47.1795 48.8378 48.3032 48.8372C49.427 48.8366 50.5304 48.5379 51.5009 47.9716C52.4714 47.4053 53.2742 46.5917 53.8273 45.6138C54.3447 44.7427 54.6199 43.7492 54.6245 42.7362C54.6292 41.7231 54.363 40.7272 53.8536 39.8514C53.8413 39.8293 53.8286 39.8104 53.8156 39.7949ZM52.5678 44.8927C52.1414 45.649 51.5217 46.2784 50.772 46.7167C50.0224 47.1549 49.1697 47.3862 48.3013 47.3868C47.4329 47.3874 46.5799 47.1573 45.8296 46.7201C45.0794 46.2829 44.4587 45.6542 44.0313 44.8985C43.6376 44.2514 43.4249 43.5105 43.4154 42.7531C43.406 41.9957 43.6002 41.2497 43.9777 40.593L48.2962 34.5937L52.6166 40.6125C52.9933 41.2647 53.1876 42.0062 53.179 42.7592C53.1704 43.5123 52.9593 44.2492 52.5678 44.8927Z" fill="#E4B148"/>
<path id="Path 3696" d="M51.2509 41.8502C51.0587 41.8502 50.8743 41.9264 50.7384 42.0622C50.6024 42.1979 50.5259 42.3821 50.5256 42.5743C50.5228 43.1729 50.2826 43.7459 49.8577 44.1677C49.4328 44.5896 48.8579 44.8257 48.2591 44.8245C48.0715 44.8313 47.8939 44.9107 47.7636 45.0458C47.6332 45.1809 47.5604 45.3613 47.5604 45.549C47.5604 45.7367 47.6332 45.9171 47.7636 46.0522C47.8939 46.1874 48.0715 46.2667 48.2591 46.2736C49.243 46.2746 50.187 45.8852 50.8838 45.1908C51.5806 44.4964 51.9731 43.5539 51.9752 42.5704C51.9739 42.3791 51.897 42.196 51.7614 42.0611C51.6257 41.9262 51.4422 41.8504 51.2509 41.8502V41.8502Z" fill="#E4B148"/>
</g>
</g>
</svg>
