<svg id="_013-save_water" data-name="013-save water" xmlns="http://www.w3.org/2000/svg" width="52.712" height="59.449" viewBox="0 0 52.712 59.449">
  <path id="Path_3674" data-name="Path 3674" d="M48.473,199.926a.751.751,0,0,0,.027.1,9.225,9.225,0,0,0,3.463,4.6l5.814,4.006.041.026a1.823,1.823,0,0,1,.816,1.055l.973,4.319a.746.746,0,0,0,.13.28l-1.086.837a.746.746,0,0,0-.288.6v6.808a.743.743,0,0,0,1.155.628l10.78-7.113a.767.767,0,0,0,.353-.628V207.51a.772.772,0,0,0-1.234-.6l-1.107.844a3.768,3.768,0,0,1-.063-.484l-.09-1.537c0-.021,0-.041-.007-.062a8.408,8.408,0,0,0-5.583-6.791l-.5-.174a4.767,4.767,0,0,1-1.794-1.125l-2.407-2.407-.822-2.781a3.9,3.9,0,0,0-3.286-2.854l-.114-.379-.006-.018a3.045,3.045,0,0,0-3.016-1.95l-.013-.044a3.531,3.531,0,0,0-4.24-2.419.752.752,0,0,0-.558.868Zm20.673,15.113-9.279,6.119v-5.038l9.279-7.086ZM55.592,192.793l.006.02.2.661a4.18,4.18,0,0,0-.949-.3l-.582-1.942A2.4,2.4,0,0,1,55.592,192.793ZM52.205,189.6l1.067,3.56a4.189,4.189,0,0,0-.795.231l-.009-.03-1.386-4.631A1.455,1.455,0,0,1,52.205,189.6Zm-3.038-2.023,1.861,6.221.135.437c-.027.025-.054.05-.081.077a.752.752,0,0,0,.025,1.087l2.913,2.661a18.777,18.777,0,0,1,2.3,2.525.752.752,0,1,0,1.2-.908,20.267,20.267,0,0,0-2.487-2.728L52.792,194.9a2.688,2.688,0,0,1,3.149.476l3.267,3.267a6.281,6.281,0,0,0,2.363,1.482l.5.174a6.909,6.909,0,0,1,4.583,5.551l.088,1.506a5.243,5.243,0,0,0,.271,1.385l-6.018,4.606-.9-3.987c0-.013-.006-.026-.01-.039a3.321,3.321,0,0,0-1.475-1.941l-5.793-3.992a7.71,7.71,0,0,1-2.876-3.795l-2.5-13.454A2.029,2.029,0,0,1,49.168,187.582Z" transform="translate(-45.798 -163.859)" fill="#e4b148"/>
  <path id="Path_3675" data-name="Path 3675" d="M268.353,216.071l10.773,7.113a.766.766,0,0,0,.419.125.733.733,0,0,0,.351-.09.748.748,0,0,0,.391-.663v-6.808a.746.746,0,0,0-.288-.6l-1.09-.837a.75.75,0,0,0,.132-.279l.974-4.319a1.824,1.824,0,0,1,.817-1.055l.041-.026,5.816-4.007a9.224,9.224,0,0,0,3.461-4.6.733.733,0,0,0,.027-.1l2.662-14.326a.752.752,0,0,0-.558-.868,3.531,3.531,0,0,0-4.24,2.419l-.013.044a3.044,3.044,0,0,0-3.016,1.95l-.006.018-.114.379a3.9,3.9,0,0,0-3.286,2.854l-.822,2.781-2.407,2.407a4.767,4.767,0,0,1-1.794,1.125l-.5.174a8.408,8.408,0,0,0-5.583,6.792c0,.02-.005.041-.006.062l-.089,1.537a3.779,3.779,0,0,1-.06.484l-1.1-.844a.781.781,0,0,0-.807-.077.768.768,0,0,0-.435.675v7.933a.768.768,0,0,0,.354.627Zm18.09-26.466a1.454,1.454,0,0,1,1.122-.871l-1.383,4.624-.012.038a4.179,4.179,0,0,0-.795-.231Zm-3.387,3.188a2.4,2.4,0,0,1,1.33-1.566l-.582,1.943a4.18,4.18,0,0,0-.949.3l.2-.661.006-.02Zm-11.15,14.568.088-1.506a6.909,6.909,0,0,1,4.583-5.551l.5-.174a6.28,6.28,0,0,0,2.363-1.482l3.267-3.267a2.688,2.688,0,0,1,3.149-.476l-2.243,2.05a20.267,20.267,0,0,0-2.486,2.727.752.752,0,1,0,1.2.908,18.763,18.763,0,0,1,2.3-2.525l2.913-2.661a.752.752,0,0,0,.025-1.087c-.026-.026-.054-.051-.081-.077l.138-.444,1.858-6.214a2.029,2.029,0,0,1,1.725-1.439l-2.5,13.454a7.708,7.708,0,0,1-2.874,3.793l-5.8,3.993a3.321,3.321,0,0,0-1.475,1.941c0,.013-.007.026-.01.039l-.9,3.988-6.018-4.606a5.243,5.243,0,0,0,.271-1.385Zm-2.4,1.673,9.279,7.086v5.037l-9.279-6.119Z" transform="translate(-240.138 -163.859)" fill="#e4b148"/>
  <g id="Group_4294" data-name="Group 4294" transform="translate(7.427 0)">
    <path id="Path_3676" data-name="Path 3676" d="M200.889,114.017a6.339,6.339,0,0,0,.036,6.416,7.045,7.045,0,0,0,12.26-.008,6.305,6.305,0,0,0,.029-6.389q-.017-.03-.038-.058l-5.513-7.674a.765.765,0,0,0-1.222,0l-5.514,7.658a.6.6,0,0,0-.039.056Zm1.282.788,4.88-6.781,4.882,6.8a4.756,4.756,0,0,1-.054,4.851,5.54,5.54,0,0,1-9.65.006,4.789,4.789,0,0,1-.059-4.879Z" transform="translate(-188.123 -95.091)" fill="#e4b148"/>
    <path id="Path_3677" data-name="Path 3677" d="M250.416,193a4.094,4.094,0,0,0,4.1-4.081.752.752,0,1,0-1.5,0,2.588,2.588,0,0,1-2.594,2.576.752.752,0,1,0,0,1.5Z" transform="translate(-231.53 -166.957)" fill="#e4b148"/>
    <path id="Path_3678" data-name="Path 3678" d="M112.052,37a7.1,7.1,0,0,0,6.133-3.577,6.306,6.306,0,0,0,.029-6.389q-.017-.03-.038-.058L112.664,19.3a.765.765,0,0,0-1.222,0l-5.514,7.658a.7.7,0,0,0-.039.059,6.337,6.337,0,0,0,.036,6.415A7.1,7.1,0,0,0,112.052,37Zm-4.881-9.2,4.88-6.781,4.882,6.8a4.756,4.756,0,0,1-.054,4.851,5.54,5.54,0,0,1-9.65.006A4.789,4.789,0,0,1,107.171,27.805Z" transform="translate(-105.035 -18.999)" fill="#e4b148"/>
    <path id="Path_3679" data-name="Path 3679" d="M155.416,106a4.094,4.094,0,0,0,4.1-4.081.752.752,0,1,0-1.5,0,2.588,2.588,0,0,1-2.594,2.576.752.752,0,1,0,0,1.5Z" transform="translate(-148.441 -90.865)" fill="#e4b148"/>
    <path id="Path_3680" data-name="Path 3680" d="M302.052,37a7.1,7.1,0,0,0,6.133-3.577,6.305,6.305,0,0,0,.029-6.389q-.017-.03-.038-.058L302.664,19.3a.765.765,0,0,0-1.222,0l-5.514,7.658c-.014.02-.027.038-.039.059a6.337,6.337,0,0,0,.036,6.415A7.1,7.1,0,0,0,302.052,37Zm-4.881-9.2,4.88-6.781,4.882,6.8a4.756,4.756,0,0,1-.053,4.851,5.54,5.54,0,0,1-9.65.006A4.789,4.789,0,0,1,297.171,27.805Z" transform="translate(-271.212 -18.999)" fill="#e4b148"/>
    <path id="Path_3681" data-name="Path 3681" d="M345.416,106a4.094,4.094,0,0,0,4.1-4.081.752.752,0,1,0-1.5,0,2.588,2.588,0,0,1-2.594,2.576.752.752,0,0,0,0,1.5Z" transform="translate(-314.618 -90.865)" fill="#e4b148"/>
  </g>
</svg>
