<svg id="_015-factory" data-name="015-factory" xmlns="http://www.w3.org/2000/svg" width="60.969" height="54.036" viewBox="0 0 60.969 54.036">
  <g id="Group_4296" data-name="Group 4296" transform="translate(0 0)">
    <path id="Path_3688" data-name="Path 3688" d="M305.225,296h-1.969a.743.743,0,1,0,0,1.487h1.969a.743.743,0,1,0,0-1.487Z" transform="translate(-266.265 -264.028)" fill="#2ab95e"/>
    <path id="Path_3689" data-name="Path 3689" d="M307.453,247H304.4a.744.744,0,0,0,0,1.487h3.048a.744.744,0,0,0,0-1.487Z" transform="translate(-267.27 -221.101)" fill="#2ab95e"/>
    <path id="Path_3690" data-name="Path 3690" d="M298.714,198.744a.744.744,0,0,0,.744.744h1.969a.744.744,0,0,0,0-1.487h-1.969A.743.743,0,0,0,298.714,198.744Z" transform="translate(-262.936 -178.173)" fill="#2ab95e"/>
    <path id="Path_3691" data-name="Path 3691" d="M311.674,150.487a.744.744,0,1,0,0-1.487h-3.048a.744.744,0,1,0,0,1.487Z" transform="translate(-270.968 -135.245)" fill="#2ab95e"/>
    <path id="Path_3692" data-name="Path 3692" d="M54.065,46.412a.74.74,0,0,0-.024-.183l-.334-7.522A.741.741,0,0,0,52.964,38H43.992a.741.741,0,0,0-.743.707l-.965,21.73L27.227,54.718a.732.732,0,0,0-.993.694v5.082L11.015,54.717a.749.749,0,0,0-1.015.7V82.124a.737.737,0,0,0,.744.736H47.25a.744.744,0,0,0,0-1.487H42.844l.168-3.718h2.109a.744.744,0,1,0,0-1.487H43.078l.474-10.781h1.276a.744.744,0,0,0,0-1.487h-1.21l.474-10.657h1.259a.744.744,0,0,0,0-1.487H44.159L44.7,39.487h7.549l.275,6.2H48.285a.744.744,0,1,0,0,1.487h4.309l.474,10.657H50.795a.744.744,0,0,0,0,1.487h2.34l.425,9.587a.743.743,0,1,0,1.486-.059l-.991-22.313a.735.735,0,0,0,.01-.116ZM11.487,56.49l14.747,5.595V81.372H22.02V74.014a.656.656,0,0,0-.684-.7H15.609a.734.734,0,0,0-.776.7v7.358H11.487Zm9.046,24.882H16.32V74.8h4.213Zm16.234,0H32.554V74.8h4.213Zm1.487,0V74.014a.667.667,0,0,0-.7-.7H31.829a.721.721,0,0,0-.762.7v7.358H27.721V56.49L42.223,62l-.868,19.376Z" transform="translate(-10 -38)" fill="#2ab95e"/>
    <path id="Path_3693" data-name="Path 3693" d="M295.107,100h-.018a.744.744,0,0,0,0,1.487h.018a.744.744,0,1,0,0-1.487Z" transform="translate(-259.109 -92.317)" fill="#2ab95e"/>
  </g>
  <path id="Path_3694" data-name="Path 3694" d="M314.861,274.552a12.361,12.361,0,1,0,12.361,12.361A12.361,12.361,0,0,0,314.861,274.552Zm0,23.235a10.874,10.874,0,1,1,10.874-10.874A10.874,10.874,0,0,1,314.861,297.787Z" transform="translate(-266.253 -245.238)" fill="#2ab95e"/>
  <path id="Path_3695" data-name="Path 3695" d="M362.041,314.376l-5.056-7.057a.727.727,0,0,0-1.207,0l-5.056,7.032c-.014.019-.027.042-.039.063a5.867,5.867,0,0,0,.033,5.939,6.514,6.514,0,0,0,11.337-.006,5.836,5.836,0,0,0,.027-5.913Q362.061,314.4,362.041,314.376Zm-1.28,5.231a5.028,5.028,0,0,1-8.757.006,4.34,4.34,0,0,1-.055-4.418l4.43-6.156,4.432,6.176A4.307,4.307,0,0,1,360.761,319.607Z" transform="translate(-307.773 -273.663)" fill="#2ab95e"/>
  <path id="Path_3696" data-name="Path 3696" d="M399.749,383.56a.744.744,0,0,0-.744.743,2.32,2.32,0,0,1-2.325,2.309.744.744,0,0,0,0,1.487,3.808,3.808,0,0,0,3.812-3.8A.744.744,0,0,0,399.749,383.56Z" transform="translate(-348.112 -340.738)" fill="#2ab95e"/>
</svg>
